<?xml version="1.0" encoding="utf-8"?>
<!-- Generator: Adobe Illustrator 19.1.0, SVG Export Plug-In . SVG Version: 6.00 Build 0)  -->
<svg version="1.1" id="Layer_1" xmlns="http://www.w3.org/2000/svg" xmlns:xlink="http://www.w3.org/1999/xlink" x="0px" y="0px"
	 viewBox="538.3 398.6 42.5 42.5" style="enable-background:new 538.3 398.6 42.5 42.5;" xml:space="preserve">
<style type="text/css">
	.st0{fill:#FFFFFF;}
</style>
<path class="st0" d="M575.9,434.4v-17.8h-3.7c0.4,1.2,0.6,2.4,0.6,3.6c0,2.3-0.6,4.4-1.8,6.4c-1.2,2-2.8,3.5-4.8,4.6
	s-4.2,1.7-6.6,1.7c-3.6,0-6.7-1.2-9.3-3.7c-2.6-2.5-3.9-5.5-3.9-9c0-1.2,0.2-2.4,0.6-3.6h-3.9v17.8c0,0.5,0.2,0.9,0.5,1.2
	c0.3,0.3,0.7,0.5,1.2,0.5h29.4c0.5,0,0.9-0.2,1.2-0.5C575.8,435.3,575.9,434.9,575.9,434.4L575.9,434.4z M568.1,419.8
	c0-2.3-0.8-4.2-2.5-5.8c-1.7-1.6-3.7-2.4-6-2.4c-2.3,0-4.3,0.8-6,2.4c-1.7,1.6-2.5,3.5-2.5,5.8c0,2.3,0.8,4.2,2.5,5.8
	c1.7,1.6,3.7,2.4,6,2.4c2.3,0,4.4-0.8,6-2.4C567.3,424,568.1,422,568.1,419.8L568.1,419.8z M575.9,409.9v-4.5c0-0.5-0.2-1-0.6-1.3
	c-0.4-0.4-0.8-0.6-1.3-0.6h-4.8c-0.5,0-1,0.2-1.3,0.6c-0.4,0.4-0.6,0.8-0.6,1.3v4.5c0,0.5,0.2,1,0.6,1.3s0.8,0.6,1.3,0.6h4.8
	c0.5,0,1-0.2,1.3-0.6S575.9,410.4,575.9,409.9z M580.7,404.1v31.4c0,1.5-0.5,2.8-1.6,3.8c-1.1,1.1-2.3,1.6-3.8,1.6h-31.4
	c-1.5,0-2.8-0.5-3.8-1.6c-1.1-1.1-1.6-2.3-1.6-3.8v-31.4c0-1.5,0.5-2.8,1.6-3.8c1.1-1.1,2.3-1.6,3.8-1.6h31.4c1.5,0,2.8,0.5,3.8,1.6
	C580.2,401.4,580.7,402.6,580.7,404.1L580.7,404.1z"/>
</svg>
