<?xml version="1.0" encoding="utf-8"?>
<!-- Generator: Adobe Illustrator 19.1.0, SVG Export Plug-In . SVG Version: 6.00 Build 0)  -->
<svg version="1.1" id="Layer_1" xmlns="http://www.w3.org/2000/svg" xmlns:xlink="http://www.w3.org/1999/xlink" x="0px" y="0px"
	 viewBox="-540.6 601.5 201.6 78.7" style="enable-background:new -540.6 601.5 201.6 78.7;" xml:space="preserve">
<style type="text/css">
	.st0{fill:#0072CE;}
	.st1{fill:#FFFFFF;}
</style>
<g>
	<g>
		<path class="st0" d="M-534.7,676.1c0,0.6-0.9,0.6-0.9,1.2c0,0-0.2,0.1-0.3,0.1c-1.7-0.4-2.3-1.1-2.5-2.7c0-0.3,0.2-0.7-0.5-0.6
			c-0.4,0-0.3-0.6-0.1-0.6c0.8-0.2,0.9-1.1,1.6-1.4c0.5-0.2,0.1-0.3-0.2-0.4c-1.5-0.8-1.5-1.8-0.2-2.8c0.5-0.4,0.6-0.9,0-1.1
			c-0.8-0.3-0.5-0.8-0.4-1.1c0.2-0.4,0.5-0.6,0-1c-0.2-0.1,0-0.3,0.3-0.4c1.1-0.3,1.1-0.9,0.4-1.8c-0.4-0.4-0.9-1.1-0.1-1.6
			c0.4-0.2,0.3-0.5,0.3-0.7c0-1-0.4-1.9-0.3-2.9c0-0.1,0-0.2-0.2-0.3c-1.1-0.6-0.5-1.1,0.2-1.6c-1-0.8-1.1-1.8-0.4-2.7
			c0,0,0.1-0.1,0.1-0.1c-0.5-1.2,0.6-2.2,0.5-3.4c0-1.2-1.2-2-0.9-3.1c0.1-0.3-0.1-0.7,0.4-0.9c0.3-0.1,0.3-0.3,0.2-0.6
			c-0.3-0.5-0.1-1,0.7-1.2c-0.9-0.5-1-1-0.5-1.7c0.3-0.3,0.3-0.6,0-0.9c-0.7-0.7-0.8-1.4-0.1-2c0.1-0.1,0.2-0.1,0.2-0.2
			c-0.6-1.6,0.2-3.3,0.3-4.9c0.1-1.4-1.3-2.4-0.9-3.7c0.1-0.2-0.1-0.3-0.4-0.3c-0.3,0-0.4-0.3-0.3-0.3c0.7-0.3,0.5-1.1,1.1-1.4
			c1.1-0.5,1.2-1,0.3-1.8c-0.4-0.3-0.8-0.4,0.1-0.7c0.9-0.4,0.9-2,0.2-2.8c-0.4-0.4-0.4-0.9-0.1-1.3c0.4-0.5,0.6-0.8-0.1-1.2
			c-0.1-0.1-0.2-0.2-0.3-0.2c1-0.8-0.8-1.7,0.2-2.6c0.8-0.7-0.3-2.1,0.6-3c0.3-0.4-0.2-0.3-0.3-0.5c-0.3-0.5-0.6-1,0.5-1.2
			c0.2,0,0.6,0.2,0.6-0.3c0-0.3,0-0.7-0.3-0.8c-0.7-0.1-0.5-0.5-0.5-0.8c0.1-0.5,0.6-0.3,0.9-0.3c1.1,0,2.2,0.1,2.4-1.3
			c0.1-0.4,0.5-0.3,0.8-0.3c3.9-0.2,7.9-0.3,11.8-0.2c1.4,0,2.8-0.4,4.3-0.1c0.4,0.1,1-0.8,1.8-0.6c0.4,0.1,1-0.2,1.3,0.5
			c0.2,0.4,1.5,0.3,1.7,0.1c0.5-0.6,1-0.3,1.5-0.3c1.2,0,2.5,0,3.7,0c0.3,0,0.3,0,0.5-0.2c0.4-0.4,0.9-0.5,1.2,0.1
			c0.2,0.4,0.6,0.4,0.8,0.3c1.7-0.8,3.5-0.2,5.2-0.4c0.8-0.1,1.6,0.2,2.4-0.4c0.2-0.2,0.7-0.2,1,0.1c0.5,0.3,0.9,0.8,1.4,0
			c0.2-0.3,0.6-0.1,0.8,0.2c0.3,0.5,0.7,0.5,1.1,0.1c0.2-0.2,0.5-0.1,0.8-0.2c1.2,0,2.5,0,3.7,0c0.2,0,0.6,0.3,0.7-0.2
			c0-0.3,0.5-0.3,0.6-0.2c1.4,0.9,2.7-0.4,4.1,0c1.5,0.4,3.1,0.3,4.7,0.2c0.7,0,1.5,0.2,2-0.4c0.1-0.1,0.5-0.1,0.6,0
			c1,0.9,2-0.3,3.1-0.1c1.2,0.3,2.5,0.2,3.7,0.2c0.4,0,1,0.2,1.1-0.5c0.1-0.3,2.2-0.1,2.5,0.2c0.5,0.5,1.6,0.5,2.1,0
			c0.2-0.3,0.5-0.2,0.8-0.2c1.1,0,2.2-0.1,3.3,0.2c0.6,0.1,1.4,0.4,2-0.5c0.3-0.4,1.4-0.2,2.1-0.1c0.5,0.1,1.1,0.2,1.6,0.1
			c3.2-0.1,6.4,0.3,9.5,0.2c0.4,0,1,0.2,1.1-0.5c0-0.2,0.3-0.2,0.6,0c0.6,0.6,1,0.7,1.5,0c0.1-0.2,0.2-0.1,0.4-0.1
			c1,0.2,2.1-0.4,2.8,0.7c0,0.1,0.3,0.1,0.3,0.1c1.2-1.1,2.7-0.3,4-0.5c0.9-0.1,2.3,0.3,2.8,0c0.9-0.4,1.2-0.3,1.8,0.2
			c0.1,0.1,0.5,0,0.6-0.1c0.3-0.6,0.6-1,0.9,0c0,0.1,0.4,0.1,0.4,0c0.8-1.3,2.2-0.6,3.3-0.6c3.4,0.3,6.7,0.3,10.1,0.5
			c1.1,0.1,2.3,0.1,3.4,0.1c0.5,0,1.1,0.3,1.4-0.5c0.1-0.2,0.8-0.4,1.1,0.2c0.2,0.5,0.8,0.5,1.2,0.2c0.9-0.6,1.1-0.6,1.7,0.3
			c0.6-0.4,1.1-1.4,1.9-0.1c0.1,0.2,0.6,0.4,1,0.1c0.9-0.6,1.8-0.9,2.7,0.1c0.1,0.2,0.4,0.1,0.5,0c1.2-0.8,3-0.8,4.1-0.1
			c0.3,0.2,0.5,0.1,0.8-0.1c0.5-0.3,1.2-0.6,1.4,0.3c0.1,0.5,0.5,0.3,0.8,0.3c2.8,0,5.6,0,8.4,0c0.1,0,0.2,0,0.2,0
			c0.7-0.6,1.5-0.2,2.3-0.3c0.3,0,1,0.3,1-0.5c0-0.2,0.7-0.2,0.9-0.1c0.9,0.5,1.7,0.4,2.5-0.2c0.1-0.1,0.2-0.2,0.5,0
			c0.5,0.4,1.1,0.3,1.4-0.2c0.1-0.2,1.2-0.3,1.2-0.1c0.1,0.3,0.6,0.4,0.6,0.4c0.9,1.5,1.1,0,1.3-0.3c0.4-1,1.4-0.6,1.9-0.4
			c0.6,0.2,1.1,0.3,1.5,0.1c1.6-1,3.5-0.8,5.3-0.9c3.7-0.3,7.4-0.7,11.1-0.9c0.2,0,0.5-0.1,0.5-0.1c0.3-1.5,1.8-0.5,2.6-0.9
			c0.5-0.2,1.1-0.4,1.5-0.5c1.5-0.5,3.2-0.4,4.8-0.3c0.4,0,0.2,0.5,0.3,0.7c0.2,0.3,0.6-0.3,0.7,0.1c0.1,0.5-0.6,0.3-0.6,0.5
			c-0.1,0.9-1.2,1.3-1.4,1.9c-0.2,0.7-0.3,1.6,0.3,2.2c0.7,0.7,0.6,1.6,0.4,2.2c-0.2,0.5-0.1,0.9-0.2,1.3c-0.2,0.9,0.5,1.8-0.2,2.7
			c-0.1,0.2-0.8,1.3,0.6,1.4c0,0,0.1,0.4,0.1,0.5c-0.3,0.8-0.4,1.6-0.5,2.4c-0.2,1.2-0.4,1.3,0.4,2.4c0.1,0.2,0.2,0.6,0,0.7
			c-0.6,0.5-0.2,1.4-0.9,1.8c0,0,0,0.1-0.1,0.1c-0.5,0.6,0.9,0.8,0.5,1.3c-0.4,0.5-0.4,1,0.3,1.3c0.2,0.1,0.3,0.3,0.2,0.3
			c-1.1,0.5,0,1.6-0.8,2.1c-0.1,0-0.1,0.2-0.1,0.3c1.2,0.2,0.4,1.1,0.8,1.7c0.1,0.2,0.1,0.6-0.3,0.7c-0.3,0.1-0.3,0.4-0.3,0.7
			c0.2,1.1,0.5,2.1,0.2,3.2c-0.1,0.3,0.3,0.9,0.5,1.5c0.4,1.4,0,2.7-0.1,4c-0.1,0.8,0.1,1.7,0.3,2.6c0.1,0.5,0.4,0.9-0.4,1.1
			c-0.3,0.1-0.1,0.5-0.1,0.7c0.3,1.7,1,3.5,0.6,5.2c-0.3,1.2,0.5,2.6-0.7,3.7c-0.1,0.1-0.2,1,0.3,1.2c0.5,0.2,0.4,0.4,0.5,0.7
			c0.2,0.7,0.1,1.3-0.6,1.7c-0.3,0.2-0.7,0.4,0,0.5c0.4,0.1,0.3,0.2,0.4,0.5c0.1,0.7-0.7,1.4,0.2,2c0.1,0.1,0.1,0.5-0.2,0.5
			c-1.2,0.1-0.9,0.7-0.8,1.3c0,0.4,0,0.8-0.3,1.3c-0.3,0.4-0.3,1.1,0.3,1.6c0.6,0.6,0.7,1.6,0.4,2.2c-0.2,0.4-0.3,0.8-0.3,1.1
			c0,1.1-0.6,2.2-0.2,3.4c0.1,0.2-1.1,0.7-1.3,0.5c-0.7-0.3-1.7-0.1-1.9,0.3c-0.2,0.7-0.6,0.6-1.1,0.6c-1.3,0-2.5,0-3.8,0.2
			c-1.4,0.2-2.8-0.3-4.2-0.2c-0.8,0.1-1.7,0-2.3,0.6c-0.1,0.1-0.6,0.5-0.9,0c-0.2-0.3-2.5-0.3-2.8,0c-1,0.8-1.2,0.7-2.7,0.2
			c-0.3-0.1-1.5-0.3-1.8,0.5c-0.1,0.3-0.4,0.5-0.7,0.5c-0.7,0-1.3,0.1-1.9,0.2c-0.5,0.1-1,0.2-1.4-0.4c-0.4-0.6-1.5,0-2.2,0.1
			c-0.8,0.2-1.2,0.2-1.2-0.7c0-0.5-0.5-0.5-0.9-0.5c-4.2,0-8.4,0-12.6,0c-0.3,0-0.8-0.1-0.8,0.4c0.1,0.8-0.5,0.7-1,0.7
			c-5.6-0.3-11.1-0.2-16.7-0.6c-0.5,0-1.2-0.3-1.5,0.5c-0.1,0.3-1.2,0.3-1.5,0c-0.8-0.8-1.5-0.6-2.3-0.2c-0.2,0.1-0.2,0.1-0.4,0
			c-1.4-0.7-1.4-0.7-3,0c-0.5,0.2-1.3,0.3-1.7-0.2c-0.3-0.5-0.9-0.5-1.1-0.3c-1,0.8-2,0.2-3,0.4c-0.7,0.1-0.3-0.6-0.8-0.7
			c-0.7-0.1-1,0.4-1.5,0.4c-2.2,0-4.4,0-6.6,0c-0.5,0-1.1,0-1.5-0.5c-0.3-0.4-0.5,0.4-1,0.4c-1.4,0-2.9,0.2-4.3-0.1
			c-1.8-0.3-3.6-0.2-5.4-0.1c-0.8,0.1-1.7,0.3-2.5,0.3c-0.5,0-1,0.1-1.2-0.4c-0.1-0.3-0.7-0.3-0.6-0.1c0,1-0.9,0.5-1.1,0.5
			c-1.4-0.2-2.7-0.2-4.1-0.2c-0.3,0-0.6-0.1-0.8,0.2c-0.3,0.3-0.5,0.4-0.6-0.1c0,0-0.3-0.1-0.4,0c-1.4,0.9-2.9,0.2-4.4,0.4
			c-0.2,0-0.5,0-0.5-0.3c-0.1-0.5-0.7-0.4-0.8-0.3c-1,0.7-2.2,0.3-3.3,0.4c-0.5,0-1-0.1-1.2,0.4c0,0.1-0.2,0.1-0.3,0.1
			c-1.7-1-3.4,0.4-5-0.1c-0.2-0.1-0.4,0-0.5,0.3c-0.1,0.5-0.4,0.3-0.6,0c-0.5-0.6-0.6-0.6-0.8-0.1c-0.2,0.5-0.5,0.3-0.8,0.3
			c-2.2-0.2-4.4-0.4-6.5,0c-1.5,0.3-3,0.4-4.4,0.3c-1.7-0.2-3.5-0.3-5.1-0.1c-1.4,0.2-2.8,0.4-4.3,0.3c-0.7,0-1.5,0.1-2.2-0.2
			c-0.2-0.1-0.7,0-0.8,0.1c-1,1-2.4,0.4-3.6,0.5c-0.7,0.1-1.4-0.4-2,0.2c-0.1,0.1-0.4,0.1-0.6-0.1c-0.3-0.4-0.6-0.5-0.9,0
			c-0.1,0.1-0.3,0.2-0.4,0.1c-1.4-0.5-2.7,0.3-4.1,0c-1.2-0.3-2.4-0.8-3.8-0.6c-3,0.4-5.9,0.9-8.9,0.8c-1.7,1.2-3.8,0.7-5.8,1
			c-2,0.3-4,0.2-6.1,0.3c-0.5,0-2-0.8-2.4-1.2c-0.6-0.5-1.5-0.6-2.2-0.7C-534.2,676.7-534.4,676.5-534.7,676.1"/>
		<path class="st1" d="M-454.1,626c0-3,1.5-4.7,4.3-4.7h7.2c7.7,0,12,3.4,12,9.8c0,6.5-4.1,9.6-11.7,9.6h-3.3v7.6h-8.4L-454.1,626
			L-454.1,626z M-445.9,634.7h3.1c2.6,0,3.9-1.3,3.9-3.5c0-2.3-1.4-3.5-4-3.5h-2.9V634.7z"/>
		<path class="st1" d="M-428.4,625c0-2.6,1.2-3.9,3.5-3.9h1.2c2.4,0,3.6,1.3,3.6,3.9v16.1h8.2c2.6,0,3.9,1.2,3.9,3.5v0.1
			c0,2.4-1.3,3.7-3.9,3.7h-16.6V625L-428.4,625z"/>
		<path class="st1" d="M-388.6,642.8h-8.8l-2.1,5.6h-8.4l9.7-25c0.4-1.3,1.5-2.3,5.3-2.3c3.8,0,4.8,1,5.2,2.3l10.1,25h-8.8
			L-388.6,642.8z M-395.9,636.8h5.8l-2.9-7.9L-395.9,636.8z"/>
		<path class="st1" d="M-376.5,625c0-2.6,1.3-3.9,3.4-3.9h0.8c2,0,2.6,0.6,3.8,2l9.7,12.6v-14.4h7.9v23.4c0,2.6-1.3,3.9-3.4,3.9
			h-0.7c-2,0-2.6-0.5-3.7-1.8l-9.9-12.9v14.5h-7.9V625L-376.5,625z"/>
		<path class="st1" d="M-453.5,657.3c0-0.7,0.4-1,1-1h0.4c0.6,0,1.1,0.3,1.1,1v6.9h-2.4V657.3L-453.5,657.3z"/>
		<path class="st1" d="M-449.2,657.4c0-0.8,0.4-1.1,1-1.1h0.2c0.6,0,0.8,0.2,1.1,0.6l2.8,3.7v-4.2h2.3v6.8c0,0.8-0.4,1.1-1,1.1h-0.2
			c-0.6,0-0.8-0.1-1.1-0.5l-2.9-3.8v4.2h-2.3L-449.2,657.4L-449.2,657.4z"/>
		<path class="st1" d="M-440.5,657.3L-440.5,657.3c0-0.7,0.4-1.1,1.1-1.1h5.1c0.8,0,1.1,0.3,1.1,1v0c0,0.7-0.4,1.1-1.1,1.1h-1.3v5.8
			h-2.5v-5.8h-1.3C-440.1,658.4-440.5,658-440.5,657.3"/>
		<path class="st1" d="M-431.9,663v-5.3c0-0.9,0.4-1.4,1.2-1.4h5.3v2.1h-4.1v0.8h3.1v2h-3.1v0.9h4.1v2.1h-5.3
			C-431.4,664.2-431.9,663.8-431.9,663"/>
		<path class="st1" d="M-419.7,663.2l-1.1-1.5h-0.4v2.5h-2.4v-6.5c0-0.9,0.4-1.4,1.2-1.4h2.4c2.2,0,3.3,0.9,3.3,2.6
			c0,1.1-0.6,2-1.7,2.3l1.8,2.2c0.1,0.1-0.4,0.8-1.4,0.8C-418.8,664.3-419.2,663.9-419.7,663.2 M-421.3,660h1c0.7,0,1.1-0.3,1.1-0.9
			c0-0.6-0.4-0.9-1.1-0.9h-1V660z"/>
		<path class="st1" d="M-415.2,657.4c0-0.8,0.4-1.1,1-1.1h0.2c0.6,0,0.8,0.2,1.1,0.6l2.8,3.7v-4.2h2.3v6.8c0,0.8-0.4,1.1-1,1.1h-0.2
			c-0.6,0-0.8-0.1-1.1-0.5l-2.9-3.8v4.2h-2.3L-415.2,657.4L-415.2,657.4z"/>
		<path class="st1" d="M-401.1,662.6h-2.6l-0.6,1.6h-2.4l2.8-7.3c0.1-0.4,0.5-0.7,1.6-0.7c1.1,0,1.4,0.3,1.5,0.7l2.9,7.3h-2.6
			L-401.1,662.6z M-403.3,660.8h1.7l-0.9-2.3L-403.3,660.8z"/>
		<path class="st1" d="M-397.4,657.3L-397.4,657.3c0-0.7,0.4-1.1,1.1-1.1h5.1c0.8,0,1.1,0.3,1.1,1v0c0,0.7-0.4,1.1-1.1,1.1h-1.3v5.8
			h-2.5v-5.8h-1.3C-397,658.4-397.4,658-397.4,657.3"/>
		<path class="st1" d="M-388.7,657.3c0-0.7,0.4-1,1-1h0.4c0.6,0,1.1,0.3,1.1,1v6.9h-2.4V657.3z"/>
		<path class="st1" d="M-384.7,660.2c0-2.4,1.7-4.1,4.2-4.1c2.4,0,4.2,1.7,4.2,4.1s-1.7,4.1-4.2,4.1
			C-383,664.4-384.7,662.7-384.7,660.2 M-378.8,660.2c0-1.2-0.7-2-1.7-2c-1.1,0-1.8,0.8-1.8,2c0,1.2,0.7,1.9,1.8,1.9
			C-379.5,662.2-378.8,661.4-378.8,660.2"/>
		<path class="st1" d="M-374.9,657.4c0-0.8,0.4-1.1,1-1.1h0.2c0.6,0,0.8,0.2,1.1,0.6l2.8,3.7v-4.2h2.3v6.8c0,0.8-0.4,1.1-1,1.1h-0.2
			c-0.6,0-0.8-0.1-1.1-0.5l-2.9-3.8v4.2h-2.3L-374.9,657.4L-374.9,657.4z"/>
		<path class="st1" d="M-360.9,662.6h-2.6l-0.6,1.6h-2.4l2.8-7.3c0.1-0.4,0.5-0.7,1.5-0.7c1.1,0,1.4,0.3,1.5,0.7l2.9,7.3h-2.6
			L-360.9,662.6z M-363,660.8h1.7l-0.9-2.3L-363,660.8z"/>
		<path class="st1" d="M-356.7,657.4c0-0.8,0.4-1.1,1-1.1h0.4c0.7,0,1.1,0.4,1.1,1.1v4.7h2.4c0.8,0,1.1,0.3,1.1,1v0
			c0,0.7-0.4,1.1-1.1,1.1h-4.8V657.4L-356.7,657.4z"/>
		<path class="st1" d="M-520.8,624.2c-0.6,0.4-3.1,3.1-3.5,3.5c-0.1,0.2-0.6,1.1-0.7,1.1c-0.1,0.1-0.4,0.6-0.5,0.7
			c-0.1,0.1-0.3,0.9-0.4,1c-0.1,0.2-0.6,0.6-0.6,0.7c0,0.1,0.2,0.6-0.4,1.1c-0.4,0.4-0.7,1.7-0.8,1.8c-0.1,0.3-0.6,0.9-0.5,1.5
			c0,0.3-0.1,0.5-0.3,0.7c-0.1,0.2-0.1,0.9-0.5,1c-0.4,0.1-0.2,0.7-0.1,0.9c0.3,0.5,0,1,0,1.1c0,0-0.1,0.5,0.1,0.8
			c0.3,0.4,0,1.1,0,1.3c-0.1,1.3,0.8,1.6,0.5,2.4c-0.2,0.5,0.2,0.9,0.1,1.3c-0.1,0.4,0.2,0.6,0.3,0.7c0,0.1,0.3,0.7,0.3,0.8
			c-0.1,0.7,0.9,1.7,0.8,2.7c0,0.9,1,1.2,1,1.3c0.5,0.6,0.5,1.3,1,1.7c0,0,0.6,0.5,0.7,0.5c0.3,0.2,0,0.4,0.1,0.5
			c0.4,1,1.3,1.6,1.3,1.6c2.2,2.5,7.4,5.8,7.9,5.9c0.5,0.1,1,0.2,1.4,0.5c0.4,0.3,2.3,1,2.3,1c0.3,0.1,0.6,0.1,0.8,0.2
			c0.3,0.1,1.9,0.7,2.1,0.8c0.3,0.1,0.7,0.3,1.9,0.6c0.5,0.1,1.1,0.4,1.6,0.5c0.6,0.1,1.1-0.4,1.6-0.1c0.6,0.3,1.3,0.6,1.7,0.6
			c2.6,0.6,6.3,0.7,8.9,0.6c0,0,0.8,0.2,1.7,0c0.9,0,2-0.4,2.9-0.4c1.3-0.4,2.9-0.7,4.1-1.3c0.4-0.1,0.9-0.6,1.2-0.6
			c0.6-0.2,1.5-1,1.6-1.1c0.1-0.1,0.9-0.5,0.9-0.5s0.3-0.2,0.5-0.3c0.2-0.1,2.3-1.9,2.3-1.9c0.2-0.4,0.6-0.5,0.9-0.7
			c0-0.1,0.1-0.1,0.1-0.1c0.1-0.1,0.3-0.2,0.4-0.3c0.1,0,0.1-0.1,0.2-0.1c0,0,0.1-0.1,0.1-0.1c0,0,0-0.1,0.1-0.1c0,0,0,0,0.1,0
			c0,0,0.1,0,0.1,0c0,0,0-0.1,0.1-0.1c0,0,0.1-0.1,0.1-0.1c0.1,0,0-0.1,0-0.2c0,0-0.1-0.1-0.1-0.1c0-0.1,0.1-0.2,0.2-0.2
			c0.1,0,0.2,0,0.2,0c0.1,0,0.1,0.1,0.1,0.1c0.1,0,0.1-0.1,0.1-0.1c0-0.1,0-0.1,0-0.1c0.1-0.1-0.1-0.1-0.1-0.1c0,0,0-0.1,0-0.1
			c0-0.1-0.1-0.1-0.1-0.1c-0.1,0-0.1,0-0.2,0.1c0,0-0.1,0.1-0.1,0.1c0,0-0.1,0-0.1,0c0,0,0,0,0,0.1c0,0-0.1,0-0.1,0c0,0-0.1,0-0.1,0
			c-0.1,0-0.1,0-0.2,0c0,0-0.1,0-0.1,0.1c-0.1,0-0.1,0-0.2,0c-0.2,0-0.3,0.1-0.4,0.2c-0.1,0-0.2,0.1-0.3,0.1c0,0-0.1,0-0.1,0
			c0,0-0.1,0-0.1,0c0,0-0.1,0.1-0.1,0.1c0,0-0.1,0-0.1,0.1c0,0,0,0.1-0.1,0.1c0,0.1-0.1,0.1-0.1,0.1c-0.1,0-0.3,0-0.5-0.1
			c-0.2-0.1-0.2-0.4-0.2-0.5c0-0.1,0-0.2-0.1-0.1c-0.1,0-0.1,0.1-0.1,0.1c-0.2,0.2-0.4,0.3-0.6,0.4c-0.1,0-0.3,0-0.4,0.1
			c-0.1,0-0.2-0.1-0.3,0c-0.1,0-0.1,0.1-0.1,0.1c0,0,0,0.1-0.1,0.1c-0.1,0.1-0.1,0.1-0.2,0.1c-0.1,0-0.2-0.1-0.1-0.2
			c0.1,0,0.2-0.1,0.2-0.2c0-0.1-0.1,0-0.1,0c-0.1,0-0.1,0.1-0.2,0.1c-0.1,0-0.3-0.1-0.3-0.2c0,0,0,0,0-0.1c0,0,0,0,0.1,0
			c0,0,0.1,0,0.1-0.1c0,0,0-0.1,0-0.1c0,0,0.1-0.1,0.2-0.2c0.1-0.1,0.1-0.2,0.2-0.2c0.1,0,0.3,0,0.3-0.1c0-0.1,0-0.2,0.1-0.3
			c0.1-0.1,0.2-0.1,0.1-0.3c-0.1-0.2-0.3,0-0.4,0.1c-0.1,0-0.1,0.1-0.2,0.1c-0.1,0-0.1-0.1,0-0.1c0.1-0.1,0.1-0.1,0.2-0.2
			c0.1-0.1,0.1-0.2,0.3-0.2c0.1,0,0.2,0,0.2,0c0.1-0.1,0-0.2-0.1-0.2c-0.2,0-0.3,0.1-0.4,0.1c-0.1,0.1-0.2,0.2-0.3,0.2
			c-0.1,0.1-0.2,0.2-0.3,0.1c0,0,0,0-0.1,0c-0.1,0-0.1,0.1-0.2,0.1c-0.1,0.1-0.3,0.2-0.3-0.1c0-0.1,0.1-0.1,0.2-0.2
			c0,0,0.3,0,0.4-0.1c0.1,0,0.3-0.1,0.4-0.2c0,0,0-0.1,0.1-0.1c0.1-0.2,0-0.4-0.2-0.3c-0.1,0.1-0.2,0.2-0.3,0.3
			c-0.1,0.1-0.2,0.1-0.3,0.1c-0.1,0-0.3-0.1-0.2-0.2c0-0.1,0.2-0.1,0.2-0.1c0.1,0,0.1-0.1,0.2-0.2c0.1-0.1,0.3-0.2,0.4-0.2
			c0.1,0,0.3,0,0.3-0.2c0-0.1-0.1-0.1-0.1-0.1c-0.1,0-0.1,0-0.2,0c-0.1,0-0.2,0-0.3-0.1c-0.1-0.1,0-0.2-0.1-0.2
			c-0.2,0-0.1,0.1-0.1,0.2c-0.1,0.1-0.4,0.2-0.4,0c-0.1-0.1,0.1-0.3,0.2-0.3c0.1,0,0.2-0.1,0.3-0.1c0,0,0.1,0,0.1,0
			c0,0,0.1-0.2,0.1-0.2c0.1,0,0.1-0.1,0-0.1c0,0-0.1,0-0.2,0c-0.1,0-0.1,0-0.2,0c-0.1,0-0.1,0.1-0.2,0.2c-0.1,0.1-0.2,0.1-0.3,0.2
			c-0.1,0-0.2-0.1-0.3-0.2c-0.2-0.1-0.1,0.1-0.2,0.2c0,0.1-0.2,0.1-0.3,0.2c-0.1,0-0.2,0.1-0.2,0.2c-0.2,0.2-0.5,0.2-0.7,0.2
			c-0.2,0.1-0.1,0.1-0.2,0.1c-0.2,0.1-0.4-0.1-0.6,0c0,0-0.1,0.1-0.2,0.1c-0.1,0-0.1,0-0.1,0c-0.3,0-0.4-0.1-0.5,0
			c-0.1,0-0.2,0.1-0.2,0.2c-0.1,0.1-0.4,0.2-0.4,0.2c-0.1,0-0.1-0.1-0.2-0.1c-0.1-0.1-0.1,0-0.2,0c-0.1,0.1-0.1,0.2-0.1,0.2
			c-0.1,0-0.2,0-0.2-0.1c0,0,0.1-0.1,0.1-0.1c0,0,0-0.1-0.1-0.1c0,0-0.1,0.1-0.1,0.1c-0.1,0-0.2,0-0.3,0c0,0-0.1,0-0.1,0
			c0,0-0.1,0-0.1,0c-0.1,0-0.1,0.1-0.2,0.1c-0.1,0-0.2,0-0.2,0c-0.1,0-0.1,0-0.2,0l-0.2,0.1c-0.1,0-0.2,0-0.3,0
			c-0.1,0-0.7,0-0.9,0.1c-0.4,0.1-0.8,0.2-1.2,0.3c-0.4,0.1-2.2,0.1-2.4,0.1c-0.2,0-1.4,0-1.5,0.1c0,0-0.3,0-0.3,0
			c-0.1,0-0.1-0.1-0.2-0.2c-0.2-0.1,0,0.1-0.3-0.1c-0.2-0.1-0.5-0.1-0.8-0.1c-0.5,0-1.4-0.1-1.6-0.1c-0.3,0-0.6-0.2-0.8-0.4
			c-0.2-0.2-0.4-0.2-0.5-0.5c-0.1-0.6,0.2-1.6,0.2-1.8c0.1-0.3,0.1-1.3,0.2-1.3c0,0,0-0.1,0-0.1c0.4-0.3,0.2-0.4,0.3-0.7
			c0.1-0.6,0.3-1.5,1-1.6c0.3-0.1,0.7-0.3,0.9-0.3c0.3-0.1,0.8,0,1.2-0.2c0.1,0,0.2-0.1,0.3-0.1c0.4,0,0.8,0.1,1.2,0
			c0.4,0,0.8-0.1,0.9-0.1c0.2,0,0-0.1,0.1-0.2c0.2-0.1,0.2,0.2,0.4,0.2c0.2,0,0.8,0.1,1,0.1c0,0,0-0.1,0-0.1
			c0.1-0.1,0.2,0.1,0.3,0.2c0.2,0.1,3.1,0.5,3.3,0.5c0.3,0.1,0.8,0,1.2-0.2c0.2-0.1,0.8-0.4,0.9-0.5c0-0.1,0-0.1,0-0.2
			c0.1-0.1,0.2-0.4,0.2-0.7c0-0.1,0-0.2,0.1-0.3c0-0.1,0-0.2,0-0.4c0-0.1,0-0.3,0.1-0.4c0.1-0.1,0.2-0.4,0.1-0.5
			c-0.1-0.2-0.3-0.3-0.4-0.4c-0.1-0.1,0,0,0-0.1c0-0.1-0.2,0-0.2,0s-0.4,0-0.6-0.1c-0.4-0.1-0.8-0.2-1.2-0.2c-0.7,0-1.3-0.3-1.9-0.2
			c-0.1,0-0.3,0.1-0.4,0.1c-0.1,0,0-0.2-0.4-0.2c-0.4,0-0.7-0.1-1.1-0.2c-0.3-0.1-1.2,0-1.3-0.1c-0.1,0-0.1,0-0.2,0
			c-0.1,0-0.2-0.2-0.5-0.2c-0.1,0-0.1-0.1-0.2-0.1c-0.1,0-0.3,0-0.4,0c-0.1-0.1-0.4-0.2-0.4-0.3c-0.1-0.3,0.6-0.8,0.8-0.9
			c0.2-0.1,0.4-0.4,0.7-0.4c0.2,0,0.2-0.1,0.3-0.2c0.2-0.3,1.1-1.5,1.4-1.7c0.3-0.2,0.1-0.5,0.5-0.8c0.1-0.1,0.3-0.5,0.3-0.6
			c0.2-0.3,0.1-0.9,0.5-1.2c0,0,0.1-0.1,0.1-0.3c0-0.1-0.1-0.2-0.1-0.3c-0.1-0.1,0-0.2,0-0.4c0-0.1,0-0.9,0-1c0-0.2,0.1-0.3,0.3-0.3
			c0.2,0,0-0.3,0-0.5c-0.1-0.3-0.4-0.7-0.8-0.8c-0.6-0.1-1,0.4-1.4,0.8c-0.2,0.3-0.9,1.2-1,1.3c-0.2,0.1,0,0.2-0.2,0.5
			c-0.1,0.1-0.2,0.1-0.3,0.2c-0.1,0.1-0.2,0.4-0.2,0.5c0,0.1,0,0.2-0.1,0.3c-0.3,0.2-0.3-0.1-0.4,0c-0.1,0.1-0.1,0.2-0.2,0.2
			c-0.3,0.2-0.3,0.3-0.6,0.4c-0.2,0-0.5,0.1-0.6,0.3c-0.1,0.1-0.4,0.1-0.4-0.1c0-0.2,0.2-0.8,0.2-0.9c0.1-0.3-0.4-0.5-0.2-0.8
			c0.1-0.2,0.1-0.3,0-0.5c0-0.1-0.1-0.4-0.2-0.5c-0.1-0.2,0.1-0.2-0.1-0.5c-0.1-0.1-0.2,0.1-0.3-0.3c0-0.2-0.2-0.3-0.4-0.4
			c-0.2-0.1-0.3-0.3-0.5-0.4c-0.5-0.3-1-0.6-1.6-0.7c-0.6-0.1-1.1-0.2-1.7-0.1c-0.1,0-0.4,0-0.4-0.1c0,0,0,0-0.1-0.1
			c-0.1-0.1-0.3,0-0.5,0.1c-0.4,0.1,0,0.3-0.2,0.4c-0.3,0.1-0.9,0.3-1.1,0.3c-0.1,0-0.2,0.1-0.4,0.1c-0.2,0-0.2,0.2-0.4,0.3
			c-0.5,0.2-0.3,1.3-0.3,1.5c0,0,0,0.2,0.1,0.1c0.1,0,0.2,0.1,0.2,0.3c0,0.2,0,0.3-0.1,0.6c-0.1,0.3,0.1,0.1,0.1,0.4
			c0,0.2,0.2,0.9,0.2,1.1c0,0.1,0.1,0.1,0.1,0.2c0,0,0.1,0.1,0.1,0.1c0.1,0,0.1,0.3,0.2,0.5c0.1,0.2,0.1,0.4,0.3,0.5
			c0.1,0.1,0.1,0.2,0.1,0.2c0.1,0.1,0.1,0.2,0.1,0.2c-0.1,0.1-0.3,0.2-0.4,0.2c-0.1-0.1-0.5-0.1-0.6-0.1c-0.3-0.1-0.6,0.1-0.7,0
			c-0.1-0.1-0.2-0.1-0.3-0.1c-0.1,0-0.1,0.1-0.2,0.1c-0.1,0-0.1-0.1-0.2-0.2c-0.2-0.2-0.4-0.2-0.7-0.3c-0.3-0.1-0.6-0.2-0.9-0.4
			c-0.3-0.2-1.3-0.6-1.4-0.7c-0.1-0.2-0.4-0.1-0.4-0.1c0-0.1-0.3-0.1-0.3-0.2c0-0.1-0.2-0.1-0.3-0.2c-0.1,0-0.2-0.1-0.3-0.1
			c-0.1,0-0.2,0.1-0.3,0c-0.1,0-0.1-0.1-0.2-0.1c-0.2-0.1-0.3,0-0.5,0.1c-0.2,0.1-0.4,0.3-0.5,0.5c-0.1,0.1-0.1,0.2-0.2,0.4
			c-0.1,0.1-0.2,0.2-0.2,0.3c-0.1,0.1,0,0.3,0.1,0.3c0.2,0,0,0.2,0.1,0.2c0.2,0.1,0.3,0.5,0.5,0.7c0.3,0.3,0.4,0.7,0.5,0.9
			c0.1,0.3,0.6,0.1,0.7,0.4c0,0.1,0.3,0.4,0.8,0.8c0.2,0.2,0.9,0.6,1.2,0.6c0.8,0.1,1.1,0.4,1.4,0.7c0.1,0.1,0.4,0,0.8,0.7
			c0.1,0.2,0.2,1.1,0.3,1.5c0.1,0.9,0.5,0.8,0.3,1.1c-0.2,0.4,0.2,0.9,0.2,1.9c0,0.2-0.1,0.6-0.2,0.9c-0.2,0.6,0.2,1.3,0.1,1.6
			c-0.1,0.3-0.2,1.6-0.5,1.9c-0.1,0.1-0.3,0.1-0.5,0c-0.3-0.1-1.1,0.1-1.3-0.1c-0.4-0.3-0.8-0.3-1.1-0.3c-0.2,0-0.5-0.2-0.7-0.3
			c-0.4-0.2-1.9-0.7-2.5-1c-1.4-0.7-3.3-1.6-3.5-2.3c-0.1-0.3-2.1-1.7-2.5-2.1c-0.2-0.3-0.5-0.6-0.6-0.8c-0.1-0.2-0.1-0.5-0.2-0.7
			c-0.3-0.4-0.6-0.4-0.7-1.1c0-0.3-0.2-0.1-0.5-0.9c-0.8-1.9-0.7-4.1-0.6-5c0-0.7,0.6-2.3,0.8-2.8c0.1-0.3,0.5-0.5,0.6-1.1
			c0-0.2,0.9-0.8,1.2-1.3c0.3-0.5,0.9-1,1.3-1.3c0.2-0.2,3.5-2.6,3.8-2.9c0.1-0.1,0.4-0.6,1.1-0.6c0.2,0,0.5-0.2,0.5-0.4
			c0.1-0.4,3.4-1.2,4-1.8c0.2-0.2,1.2-0.5,1.7-0.6c0.1,0,0.1,0.1,0.4-0.2c0.2-0.2,0.8,0.1,1.1-0.2c0.4-0.4,0.5-0.5,1.3-0.5
			c0.8,0,0.7-0.4,1.3-0.4c0.3,0,0.9-0.2,1.1-0.5c0.1-0.2,1.6-0.4,1.9-0.6c0.7-0.5,1.2,0.1,2.1-0.1c0.1,0,0.5,0.1,0.7,0.1
			c0.2,0,0.5-0.3,0.6,0c0.1,0.2,1.4,0.1,1.7,0.1c0.1,0,0.3-0.1,0.3,0c0,0.2,0.8,0.1,1,0.2c0.2,0.2,0.6,0.4,1,0.2
			c0.3-0.1,1.2,0.1,1.6,0.2c0.2,0.1-0.2,0.2,0.7,0.3c0.6,0,2.7,1.3,3.1,1.3c0.5,0,0.7,0.6,1.2,0.8c1,0.4,2.1,1.2,4.5,3
			c0.1,0.1,0.2,0.5,0.4,0.5c0.6,0,1.2,1.1,1.5,1.5c0.1,0.1,0.5-0.1,0.4,0.6c0,0.1,0.3,0,0.3,0.4c0,0.6,1,0.9,1.2,2.1
			c0,0.1,0.2,0.2,0.2,0.3c0.2,0.4,0.8,2.4,0.8,3.2c0,0.2,0.1,1.6-0.1,2.5c-0.2,0.9-0.5,1.7-0.8,2.5c-0.2,0.5-0.7,1.2-0.7,1.4
			c0,0.2-0.2,0.4-0.1,0.5c0,0.1,0,0.3-0.1,0.3c-0.2,0.1-0.4,0.2-0.4,0.4c0,0.1-0.3,0.1-0.3,0.3c0,0.2-0.3,0.2-0.3,0.4
			c0,0.1-0.3,0.2-0.2,0.4c0,0.1-0.1,0.1-0.2,0.1c-0.1,0-0.4,0.5-0.4,0.6c0,0.1-0.2,0-0.2,0.3c0,0.2-0.2,0.2-0.3,0.3
			c-0.1,0.1-0.2,0.2-0.2,0.2c-0.1,0.1-0.1,0.2-0.1,0.4c0,0.1-0.2,0.5,0,0.5c0.1,0,0.1-0.1,0.2-0.2c0.1-0.1,0.2-0.2,0.4-0.2
			c0.2-0.1,0.4-0.1,0.5-0.3c0-0.1,0.1-0.3,0.3-0.3c0,0,0.1,0,0.1,0c0,0,0.1-0.1,0.1-0.1c0.1-0.1,0.1-0.2,0.2-0.3
			c0-0.1,0.2,0,0.2-0.1c0-0.1,0-0.1,0-0.1c0.1,0,0.1,0,0.2-0.1c0,0,0.1-0.1,0.1-0.1c0.1-0.1,0.2-0.1,0.3,0c0.1,0.1-0.3,0.5-0.4,0.5
			c-0.1,0.1-0.2,0.3-0.3,0.4c-0.1,0.1-0.2,0.2-0.3,0.3c0,0-0.1,0.1-0.1,0.1c0,0-0.1,0.1-0.1,0.1c0,0.1-0.1,0.1-0.2,0.2
			c-0.1,0.1-0.1,0.1-0.1,0.2c-0.1,0.1-0.1,0.2-0.1,0.3c0,0.1,0.1,0.1,0.2,0.1c0.1,0,0.1-0.1,0.1-0.2c0-0.1,0.1-0.1,0.1-0.2
			c0.1-0.1,0.1-0.1,0.2-0.1c0.1,0,0.1-0.1,0.1-0.1c0.1-0.1,0.2-0.3,0.3-0.4c0.1-0.1,0.1-0.2,0.2-0.2c0.1,0,0.1,0,0.1-0.1
			c0-0.1,0-0.2,0.1-0.2c0.1,0,0.1,0.1,0.1,0.1c0,0.1,0,0.1,0.1,0.1c0.1,0,0.1,0,0.2-0.1c0-0.1,0.1-0.2,0.2-0.2
			c0.1,0,0.1-0.1,0.2-0.1c0.1-0.1,0.2-0.2,0.3-0.3c0.1-0.1,0.1-0.1,0.2-0.2c0.1-0.1,0.1-0.1,0.2-0.2c0.1,0,0.1,0,0.1,0
			c0,0,0,0,0.1-0.1c0,0,0-0.1,0.1-0.1c0.1,0,0.1,0.1,0.1,0.2c0,0,0,0.1,0,0.1c0,0,0.1,0,0.1,0c0.1,0,0.1,0,0.1,0.1
			c0,0-0.1,0.1-0.1,0.1c-0.1,0.1-0.2,0.2-0.3,0.3c0,0-0.1,0.1-0.1,0.1c-0.1,0.1-0.2,0.3-0.4,0.4c-0.1,0.1-0.2,0.2-0.3,0.4
			c-0.1,0.1-0.1,0.1-0.2,0.2c-0.1,0.1-0.1,0.1-0.2,0.2c-0.1,0.1-0.2,0.2-0.2,0.3c0,0.1,0,0.1-0.1,0.2c0,0.1-0.1,0.1-0.1,0.2
			c-0.1,0.1-0.2,0.3-0.3,0.4c0,0.1,0,0.2,0.1,0.1c0.1-0.1,0.1-0.1,0.1-0.2c0.1,0,0.1,0,0.2-0.1c0.1,0,0.2-0.1,0.2-0.2
			c0-0.1,0-0.2,0.1-0.2c0,0,0.1,0,0.2-0.1c0.1,0,0.2,0,0.2-0.1c0.1,0,0.2,0,0.2-0.1c0,0,0,0,0,0c0,0,0,0,0,0c0,0,0-0.1,0-0.1
			c0,0,0,0,0-0.1c0,0,0-0.1,0.1-0.1c0-0.1,0-0.1-0.1-0.1c-0.1,0-0.2-0.1-0.2-0.2c0,0,0-0.1,0.1-0.1c0,0,0-0.1,0-0.1c0,0,0-0.1,0-0.1
			c0,0,0-0.1,0-0.1c0,0,0.1-0.1,0.1-0.1c0.1,0,0.1,0.1,0.2,0.1c0.1,0,0.1,0,0.2,0c0.1,0,0.1,0,0.2,0c0,0,0.1,0,0.1-0.1
			c0,0,0-0.1,0-0.1c0-0.1-0.1-0.1-0.1-0.2c0-0.1,0-0.1,0.1-0.2c0-0.1,0.1-0.1,0.2-0.1c0.1,0,0.3,0.2,0.4,0.1c0.1,0,0.1-0.1,0-0.1
			c0,0,0,0-0.1-0.1c0,0,0,0,0-0.1c0-0.1,0-0.2,0.1-0.3c0.1-0.1,0.1-0.2,0.2-0.2c0,0,0.1,0,0.1,0h0c0.1,0,0.1,0.1,0.1,0.1
			c0,0.1,0,0.1,0,0.2c0,0.1-0.1,0.2,0,0.3c0.1,0.1,0.2,0.1,0.3,0.1c0,0,0.1,0,0.1,0c0,0,0.1,0,0.1,0c0.1,0,0.1,0.1,0.1,0.2
			c0,0.1-0.1,0.1-0.1,0.2c0,0.1-0.2,0.1-0.2,0.2c-0.1,0-0.1,0-0.2,0.1c-0.1,0-0.2,0.1-0.2,0.1c0,0.1,0,0.1,0.1,0.1
			c0.1,0,0.2,0.1,0.2,0.2c0,0.2-0.2,0.3-0.3,0.4c-0.1,0-0.1,0.1-0.2,0.1c0,0-0.1,0.1-0.1,0.1c0,0,0,0.1-0.1,0.1
			c-0.1,0-0.1-0.1-0.2-0.1c0,0-0.1,0-0.1,0c0,0,0,0,0,0c0,0-0.1,0-0.1,0.1c0,0,0,0.1,0,0.1c0,0.1,0,0.1,0,0.2c0,0,0,0.1,0,0.1
			c0,0.1,0.1,0,0.2,0c0,0,0.1-0.1,0.1-0.1c0.1-0.1,0.1,0.1,0.1,0.1c0,0-0.1,0.1-0.1,0.1c0,0.1,0,0.1,0.1,0.1c0.1,0,0.3-0.1,0.3-0.2
			v0c0-0.1-0.1-0.2,0-0.2c0.1,0,0.1,0,0.1,0.1c0,0,0.1,0.1,0.1,0.1c0.1,0,0.1-0.1,0.1-0.1c0.1-0.1,0.1-0.1,0.2-0.2
			c0.1-0.1,0.3-0.1,0.4-0.2c0.1-0.1,0.2-0.3,0.2-0.4c0-0.1,0-0.2,0.1-0.2c0.1-0.1,0.3-0.1,0.4-0.2c0,0,0.1-0.1,0.1-0.2
			c0-0.1,0-0.1,0.1-0.1c0-0.1,0-0.1,0-0.2c0-0.1,0-0.1,0.1-0.2c0.1,0,0.1,0,0.2,0c0.1,0.1,0.2,0,0.3,0c0.1,0.1,0,0.2-0.1,0.3
			c-0.2,0.2-0.2,0.4-0.4,0.6c-0.1,0.1-0.2,0.1-0.2,0.1c-0.1,0.1-0.1,0.3-0.1,0.4c0,0-0.1,0-0.2,0c0,0,0,0.1,0,0.1c0,0,0,0.1,0,0.1
			c0,0-0.1,0.1-0.1,0.2c0,0,0.1,0,0.1,0c0.1,0,0.1,0,0.1-0.1c0,0,0,0,0.1,0c0,0,0,0,0.1,0.1c0,0,0.1,0.1,0.1,0c0,0,0-0.1,0-0.1
			c0,0,0-0.1,0.1-0.1c0,0,0,0,0,0c0,0.1,0.1,0,0.2,0c0,0,0.1-0.1,0.1-0.1c0.1-0.1,0.1-0.2,0.2-0.2c0.1-0.1,0.1-0.1,0.2-0.2
			c0.1,0,0.1,0,0.2,0c0.1,0,0.1-0.1,0.2-0.1c0.1-0.1,0.2-0.1,0.3-0.2c0,0,0.2-0.1,0.2,0c0,0,0,0,0,0.1c0,0,0,0,0,0.1
			c0,0.1-0.2,0.2-0.2,0.2c0,0,0,0.1,0,0.1c0,0.1-0.1,0.1-0.2,0.2c-0.1,0.1-0.2,0.2-0.3,0.3c0,0.1,0,0.1,0,0.1c0,0,0.1,0.1,0.1,0.1
			c0,0-0.1,0-0.1,0c-0.1,0-0.1,0.1-0.1,0.2c0,0.1-0.1-0.1-0.1,0.1c0,0.1,0,0.2,0,0.2c0,0.1-0.1,0.1-0.2,0.2c0,0,0,0-0.1,0
			c0,0,0,0-0.1,0c0,0,0,0.1,0,0.1c0,0,0,0-0.1,0.1c0,0-0.1,0.1-0.1,0.1c0,0,0,0,0,0.1c0,0,0,0,0.1,0c0,0,0,0,0,0c0,0,0,0,0,0
			c0,0,0,0,0,0c0,0,0.1,0,0.1-0.1c0,0,0.1,0,0.1-0.1c0.1-0.1,0.3-0.2,0.4-0.4c0.1-0.1,0.2-0.3,0.4-0.5c0.1-0.1,0.1-0.1,0.2-0.2
			c0.2,0,0.1,0.1,0,0.2c0,0,0,0.1-0.1,0.1c0,0-0.1,0-0.1,0c0,0-0.1,0.1-0.1,0.1c-0.1,0.1-0.1,0.2-0.2,0.3c-0.1,0-0.1,0.1-0.2,0.1
			c0,0.1-0.1,0.2-0.1,0.2c0,0.1,0,0.1,0,0.1c0.1,0,0.1-0.1,0.2-0.1c0.1-0.1,0.2-0.1,0.3-0.1c0.1-0.1,0.1-0.1,0.1-0.2
			c0,0,0.1-0.2,0.1-0.2c0-0.1,0.1-0.1,0.1-0.1c0,0,0,0,0.1-0.1c0.1,0,0.2-0.1,0.2,0.1c0,0.1-0.1,0.1-0.1,0.2
			c-0.1,0.2-0.3,0.3-0.4,0.5c-0.1,0.2-0.1,0.4-0.2,0.6c-0.1,0.1-0.1,0.2-0.2,0.3c-0.1,0.1-0.2,0.1-0.2,0.2c-0.1,0.1-0.1,0.2-0.2,0.2
			c-0.1,0.1-0.2,0.2-0.3,0.3c0,0-0.1,0.1-0.1,0.1c-0.1,0.1-0.1,0.1-0.2,0.2c-0.1,0.1-0.1,0.1-0.1,0.2c-0.1,0.1-0.1,0.1-0.1,0.2
			c-0.1,0-0.1,0-0.1,0c0,0-0.1,0-0.1,0.1c0,0-0.1,0.1-0.1,0.1c0,0-0.1,0.1-0.1,0.1c0,0.1,0.4-0.2,0.4-0.2c0.1-0.1,0.2-0.2,0.4-0.4
			c0.3-0.3,0.6-0.6,0.9-0.9c0.3-0.3,0.5-0.6,0.7-0.8c0.1-0.1,0.2-0.3,0.3-0.4c0.1-0.1,0.1-0.3,0.2-0.3c0.1,0,0.2,0,0.3,0
			c0.3-0.1,0.6-0.6,0.8-0.9c0.7-0.8,1.5-2.6,1.5-2.8c0.1-0.2,0.1-0.5,0.4-0.6c0.2-0.1,0.2-0.5,0.2-0.7c0.1-0.3,0.1-0.6,0.3-0.8
			c0.3-0.4,0.3-1,0.4-1.2c0.1-0.4,0.9-3.3,0.7-5.6c0-0.4,0-3.1-0.8-3.9c-0.5-0.5,0-1.2-0.2-2c-0.1-0.2,0.2-0.3,0.3-0.5
			c0.2-0.7-0.2-1.2-0.6-1.3c-0.3-0.1-0.7-0.1-0.8-0.4c0-0.1,0.2-0.8-0.1-1.4c-0.2-0.3-0.4-1-2.5-2.6c-0.7-0.5-1.2-1.3-1.8-1.9
			c-0.2-0.4-1.3-1.3-1.6-1.5c-0.2-0.1-0.5-0.8-1.4-1.1c-0.3-0.1-2.3-1.7-2.6-1.8c-0.9-0.3-2.3-1.3-2.6-1.4c-1.5-0.4-2.1-1.2-2.6-1.3
			c-0.4,0-1.6-0.1-2.3-0.8c-0.3-0.4-0.9-0.5-1.3-0.2c-0.3,0.2-1.3-0.7-2.6-0.5c-0.3,0-0.5-0.5-1.6-0.3c-1,0.1-1.7-0.5-2-0.7
			c-0.3-0.1-2.5-0.7-3.5-0.6h-0.6c-2.1-0.3-3.9-0.3-5.9,0c-0.5,0.1-6.5,1.7-7,2c-0.5,0.3-1.7,0.7-2,0.8c-0.7,0.3-3.2,1.1-3.3,1.4
			c0,0.1-0.5,0.2-0.6,0.3c-0.1,0.1-0.7,0.7-1.5,1.1c-0.5,0.2-3,2-3.5,2.4C-519,622.9-520.5,624-520.8,624.2"/>
		<path class="st1" d="M-463.4,631.5c0,0.2,0,0.4-0.2,0.5c0,0-0.1,0-0.1,0c0,0,0,0-0.1,0c-0.1,0-0.2-0.1-0.2-0.2
			c0,0-0.1-0.1-0.1-0.1c0,0-0.1-0.1-0.1-0.1c0,0,0-0.1,0-0.2c0,0,0-0.1,0-0.1c0,0,0-0.1,0.1-0.1c0,0,0.1-0.1,0.1-0.1
			C-463.7,631.1-463.4,631.2-463.4,631.5"/>
		<path class="st1" d="M-478.4,650C-478.4,650-478.4,650-478.4,650c0,0.2-0.2,0.2-0.2,0.3c-0.1,0.1-0.1,0.2-0.2,0.2
			c0-0.1,0.2-0.4,0.3-0.4C-478.5,649.9-478.4,649.9-478.4,650"/>
		<path class="st1" d="M-477.7,650.3c0,0-0.1,0.1-0.1,0.1c-0.1,0.1-0.1,0.2-0.2,0.3c0,0,0,0.1-0.1,0.1c-0.2,0.2-0.3,0.4-0.5,0.5
			c-0.1,0.1-0.2,0.2-0.3,0.2c0,0-0.2,0.2-0.3,0.1c-0.1-0.1,0-0.2,0-0.2c0,0,0.1-0.1,0.1-0.1c0-0.1,0.1-0.1,0.1-0.2
			c0-0.1,0.1-0.2,0.1-0.2c0.1-0.1,0.2-0.1,0.3-0.1c0.1,0,0.2-0.1,0.2-0.2c0,0,0-0.1,0-0.1c0,0,0-0.1,0.1-0.1c0,0,0.1-0.1,0.1-0.1
			c0.1,0,0.2-0.2,0.2-0.1C-477.7,650.2-477.7,650.2-477.7,650.3"/>
		<path class="st1" d="M-470.9,651.1c0,0,0,0.1,0,0.1c0,0.1-0.1,0.1-0.1,0.1c-0.1,0-0.1,0.1-0.2,0.1c-0.1,0-0.1,0-0.2,0.1
			c0,0-0.2,0.1-0.1,0.1c0.1,0,0,0.1,0,0.1c-0.1,0-0.2,0-0.2,0c-0.1-0.1,0-0.2,0.1-0.3c0.1-0.1,0.1-0.1,0.2-0.1
			c0.1,0,0.2-0.1,0.2-0.1c0.1,0,0.1-0.1,0.2-0.1C-471,650.9-471,651-470.9,651.1"/>
		<path class="st1" d="M-475.3,651.2C-475.3,651.2-475.4,651.2-475.3,651.2c-0.1,0-0.1,0-0.2,0c-0.1-0.1,0.1-0.1,0.1-0.1
			C-475.3,651.1-475.3,651.2-475.3,651.2"/>
		<path class="st1" d="M-475.2,651.4C-475.2,651.4-475.3,651.4-475.2,651.4c-0.1,0.1-0.1,0.1-0.2,0.1c-0.1,0-0.1,0.1-0.2,0.2
			c0,0.1-0.1,0.1-0.2,0.1c0,0,0,0,0,0c0,0,0,0,0,0c-0.1,0-0.2,0-0.1-0.1c0-0.1,0.1-0.1,0.1-0.1c0.1,0,0.1,0,0.2-0.1
			c0.1,0,0.1-0.1,0.1-0.2c0,0,0.1,0,0.1,0c0,0,0.1,0,0.1,0C-475.3,651.4-475.3,651.4-475.2,651.4
			C-475.3,651.4-475.2,651.4-475.2,651.4"/>
		<path class="st1" d="M-479.7,652.3c-0.2,0.2-0.6,0.5-0.8,0.3c-0.2-0.2-0.1-0.4,0.1-0.5c0.2-0.2,0.8-0.5,0.9-0.4
			C-479.3,651.9-479.6,652.1-479.7,652.3"/>
		<path class="st1" d="M-472.2,652.2c-0.1,0-0.1-0.1-0.1-0.2c0,0,0-0.1,0-0.1c0,0,0-0.1,0-0.1c0,0,0.1,0,0.2,0c0,0,0.1,0,0.1,0.1
			c0,0.1-0.1,0.1-0.1,0.2C-472.1,652.1-472.1,652.2-472.2,652.2C-472.2,652.2-472.2,652.2-472.2,652.2"/>
		<path class="st1" d="M-476.4,652.2c-0.1,0-0.1-0.2-0.1-0.3c0,0,0.1,0,0.1,0C-476.3,652-476.3,652-476.4,652.2
			C-476.3,652.1-476.3,652.2-476.4,652.2"/>
		<path class="st1" d="M-476.7,652.5c0,0,0-0.1,0.1-0.1c0,0,0.1,0,0.1-0.1c0-0.1-0.1-0.1-0.1-0.1c-0.1,0-0.1,0.1-0.2,0.1
			c-0.1,0.1-0.2,0.1-0.3,0.1c-0.1,0-0.2,0-0.2,0c0,0-0.1,0-0.1,0.1c0,0,0,0.1,0,0.2c0,0.1,0.2,0.1,0.3,0.1c0.1,0,0.2,0,0.3-0.1
			C-476.9,652.6-476.8,652.6-476.7,652.5"/>
		<path class="st1" d="M-470.7,652.5C-470.7,652.5-470.7,652.5-470.7,652.5C-470.7,652.5-470.7,652.6-470.7,652.5
			c-0.1,0.1-0.1,0.1-0.1,0.2c0,0,0,0.1-0.1,0.1c-0.1,0-0.1-0.1-0.1-0.1C-471,652.5-470.9,652.5-470.7,652.5
			C-470.8,652.5-470.8,652.5-470.7,652.5"/>
		<path class="st1" d="M-477.7,653.1L-477.7,653.1c-0.1,0-0.2-0.1-0.1-0.2c0-0.1,0.2-0.1,0.2,0C-477.6,653-477.6,653.1-477.7,653.1"
			/>
		<path class="st1" d="M-481.5,654.2L-481.5,654.2C-481.5,654.2-481.4,654.2-481.5,654.2c-0.1,0.1-0.2,0-0.2-0.1c0-0.1,0-0.1,0-0.1
			c0.1,0,0.1-0.1,0.2-0.1c0.1,0,0.1,0,0.1,0c0,0.1-0.1,0.1-0.1,0.1C-481.5,654.1-481.5,654.1-481.5,654.2"/>
		<path class="st1" d="M-471.4,654.8c0.1,0,0,0.3-0.1,0.3C-471.6,655.1-471.5,654.8-471.4,654.8"/>
		<path class="st1" d="M-472.2,655c0.1,0.2-0.1,0.4-0.2,0.5c-0.1,0.1-0.2,0.1-0.3,0.1c-0.1,0-0.2-0.1-0.2-0.2
			c-0.1-0.2,0.1-0.3,0.2-0.4c0.1,0,0.1-0.1,0.2-0.1C-472.4,655-472.2,655-472.2,655"/>
		<path class="st1" d="M-472.8,655.9C-472.8,655.9-472.8,655.9-472.8,655.9c-0.1,0.1-0.1,0.1-0.1,0.1c0,0-0.1,0-0.2,0
			c0,0,0-0.1,0-0.1c0,0,0.1,0,0.1-0.1C-472.9,655.8-472.9,655.8-472.8,655.9C-472.8,655.8-472.8,655.9-472.8,655.9"/>
		<path class="st1" d="M-490.7,625.5c0,0.2-0.1,0.4-0.2,0.5c0,0.1-0.1,0.2-0.1,0.2c-0.1,0.1-0.1,0.1-0.2,0.1c-0.1,0.1-0.2,0.1-0.3,0
			c-0.2-0.1,0-0.3,0-0.5c-0.1-0.2,0-0.4,0.1-0.6c0.1-0.2,0.2-0.4,0.3-0.5c0.1-0.1,0.2-0.2,0.3-0.1
			C-490.7,624.9-490.8,625.3-490.7,625.5"/>
		<path class="st1" d="M-493.7,626.6c0.1,0.2,0.1,0.4,0.2,0.5c0.1,0.1,0.1,0.5,0.1,0.5c-0.2,0-0.1,0.1-0.2,0.1c-0.1,0-0.6,0-0.8-0.3
			c0-0.1-0.1-0.2-0.1-0.3c0-0.1,0-0.6,0-0.8c0-0.2,0.3-0.2,0.4-0.1C-493.9,626.3-493.7,626.6-493.7,626.6"/>
		<path class="st1" d="M-487.7,627c-0.1,0.2-0.4,0.3-0.3,0.5c0,0.1-0.1,0.2-0.2,0.2c-0.3,0.1-0.6,0.4-0.8,0.2
			c-0.1-0.2-0.5-0.3-0.5-0.5c0.1-0.3,0.4-0.2,0.6-0.4C-488.9,626.9-487.9,626.8-487.7,627L-487.7,627z"/>
		<path class="st1" d="M-494.7,628.9c0,0.1,0,0.2-0.1,0.3c-0.1,0.2-0.4,0.1-0.5,0.2c-0.2,0.1-0.5,0-0.6,0c0,0-0.4-0.1-0.4-0.2
			c0-0.1-0.1-0.3-0.1-0.4c0-0.1,0.2-0.2,0.3-0.2c0.2,0,0.4-0.1,0.5,0c0.3,0.2,0.6,0.1,0.7,0.1C-494.8,628.8-494.7,628.9-494.7,628.9
			"/>
		<path class="st1" d="M-489.4,630.4c-0.2,0.4-1,1.5-2.3,1.8c-0.5,0.1-1.1,0.3-1.5,0c0,0-0.2-0.2-0.4-0.3c-0.2-0.1-0.3,0-0.4-0.1
			c0,0-0.1-0.3-0.1-0.4c0-0.1-0.1-0.2-0.1-0.3c0-0.1-0.2-0.3-0.2-0.5c0-0.1-0.1-0.4,0.1-0.7c0.1-0.1,0.3-0.5,0.1-0.5
			c-0.1,0-0.1-0.2,0.1-0.3c0.2-0.2,0.3-0.9,1-1.1c0.5-0.2,0.8-0.8,1.4-0.8c0.3,0,0.5,0,0.8,0.1c0.2,0.1,0.5,0.1,0.7,0.3
			c0.1,0.1,0.5,0.3,0.6,0.6c0.1,0.2,0.3,0.4,0.4,0.6c0,0.1,0.1,0.5,0.1,0.6C-489.2,629.6-489.3,630.2-489.4,630.4 M-490.7,629
			c0-0.1-0.3-0.3-0.4-0.4c-0.2-0.1-0.3,0-0.5-0.1c-0.3-0.1-0.6,0.2-0.8,0.3c-0.1,0-0.2,0.2-0.3,0.2c-0.3,0.2-0.5,0.9-0.5,1.1
			c-0.1,0.4,0.3,0.7,0.4,0.7c0.2,0,0.5,0,0.7-0.1c0.3-0.1,0.6-0.4,0.9-0.6c0.2-0.2,0.3-0.4,0.4-0.6
			C-490.6,629.1-490.7,629-490.7,629"/>
		<path class="st1" d="M-487.4,630.5c0.1,0,0.2,0.1,0.2,0.2c0,0.1-0.1,0.1-0.2,0.1c-0.1,0.1-0.1,0.3-0.3,0.3c-0.1,0-0.2,0-0.3,0.1
			c-0.2,0-0.5,0-0.7-0.1c-0.1,0-0.1-0.1-0.1-0.1c0,0-0.2-0.1-0.2-0.3c0-0.1,0-0.1-0.1-0.1c-0.1-0.1,0-0.2,0.1-0.3c0.1,0,0.1,0,0.2,0
			c0.2-0.1,0.4,0,0.6,0c0.1,0,0.2,0,0.3,0.1C-487.7,630.4-487.4,630.5-487.4,630.5"/>
		<path class="st1" d="M-494.9,631.8C-494.9,631.8-494.8,631.9-494.9,631.8c0.1,0.2,0,0.3-0.1,0.4c-0.1,0.1-0.2,0.1-0.3,0.2
			c0,0-0.3,0.1-0.4,0.2c-0.1,0-0.3,0-0.4,0c-0.1,0-0.2-0.1-0.3-0.3c0.1-0.5,0.7-0.6,1-0.7C-495,631.5-494.8,631.6-494.9,631.8"/>
		<path class="st1" d="M-490,632.6c0.1,0.1,0.2,0.2,0.3,0.3c0.1,0.1,0.1,0.3,0.1,0.4c0,0.2-0.2,0.2-0.3,0.4c0,0,0,0.1-0.1,0.1
			c-0.1,0-0.2,0-0.3-0.1c-0.1,0-0.2,0-0.3-0.1c-0.1-0.1-0.1-0.2-0.1-0.2c0-0.1,0-0.2-0.1-0.3c0,0-0.1-0.1-0.1-0.1c0,0,0-0.1,0-0.1
			c0-0.1,0.1-0.1,0.1-0.3c0-0.1,0-0.1,0.1-0.1c0.1,0,0.2,0,0.3,0.1C-490.2,632.6-490,632.6-490,632.6"/>
		<path class="st1" d="M-492.5,633.1c0.1,0.2,0.1,0.4,0,0.7c-0.1,0.2-0.2,0.3-0.3,0.5c0,0.1-0.1,0.1-0.1,0.2
			c-0.2,0.1-0.3-0.1-0.3-0.1c0,0-0.1-0.1-0.1-0.2c0-0.5,0.4-1.2,0.5-1.2C-492.7,632.9-492.6,633.1-492.5,633.1"/>
		<path class="st1" d="M-477,657c-0.1,0.1,0,0.4-0.1,0.5c-0.1,0.1-0.2,0.2-0.4,0.1c-0.1,0-0.1-0.1,0-0.2c0,0,0-0.1,0-0.1
			c0,0,0,0,0-0.1c0,0,0.1-0.1,0-0.1c0,0,0,0-0.1,0c0,0,0-0.1,0-0.1c0,0,0-0.1,0-0.1c0,0,0.1,0,0.1,0c0.1,0,0.1,0,0.2,0.1
			c0,0,0.1,0,0.1,0C-477.1,657-477,657-477,657c0-0.1,0-0.1,0-0.1c0.1,0,0.1,0,0.1,0.1c0,0,0,0.1-0.1,0.1
			C-476.8,657.1-476.9,657.1-477,657C-476.9,657-476.9,657-477,657"/>
		<path class="st1" d="M-480.3,654.4c-0.1,0-0.1,0.1-0.2,0.1c-0.1,0,0-0.1,0-0.1c0,0,0-0.1,0-0.1c0.1-0.1,0.3,0,0.3-0.2
			c0-0.1,0.1-0.3,0.2-0.2c0.1,0.1,0,0.2,0,0.3c0,0.1,0,0.1,0,0.1c0,0-0.1,0.1-0.1,0.1C-480.2,654.4-480.3,654.4-480.3,654.4"/>
		<path class="st1" d="M-477.2,649.7C-477.2,649.7-477.3,649.7-477.2,649.7c-0.1,0.2,0,0.1,0,0.1c0,0,0.1-0.1,0.1-0.1
			C-477.1,649.6-477.2,649.7-477.2,649.7"/>
		<path class="st1" d="M-473.9,650.6c0-0.1-0.3,0-0.2,0.1C-474.1,650.7-473.8,650.7-473.9,650.6"/>
		<path class="st1" d="M-473.5,649.5c0,0-0.1-0.2-0.2,0c0,0.1-0.1,0.1,0,0.2c0.1,0.1,0.2,0,0.2,0c0.1,0,0.1-0.1,0-0.2
			C-473.4,649.5-473.5,649.5-473.5,649.5"/>
		<path class="st1" d="M-475,649.1c-0.1,0-0.2,0.1-0.2,0.2c-0.1,0.1-0.3,0.3-0.4,0.5c0,0.1-0.1,0.1-0.2,0.2c0,0-0.1,0.1,0,0.1
			c0,0,0.2,0,0.2,0c0,0,0.1-0.1,0.1-0.1c0,0,0.1,0,0.1-0.1c0,0,0.1-0.1,0.1-0.1c0,0,0.1-0.1,0.1-0.1c0,0,0.1-0.1,0.1-0.1
			c0.1-0.1,0.1-0.1,0.2-0.2C-474.9,649.2-474.9,649.1-475,649.1C-475,649.1-475,649.1-475,649.1"/>
		<path class="st1" d="M-472.4,649c0,0-0.1,0-0.1,0c-0.2,0-0.2-0.1-0.2,0.1c0,0-0.1,0.3,0,0.3c0.1,0,0.2-0.2,0.2-0.2
			C-472.5,649.2-472.3,649-472.4,649"/>
		<path class="st1" d="M-472,649.8c0.1,0-0.1,0.2-0.1,0.2c-0.1,0-0.2,0-0.3,0.1c0,0-0.1,0-0.1,0c0,0,0-0.1,0-0.1
			c0,0,0.1-0.1,0.1-0.1c0.1,0,0.1-0.1,0.1-0.1C-472.2,649.8-472.1,649.8-472,649.8"/>
		<path class="st1" d="M-476.7,650.3c0.1,0,0.1,0.1,0,0.2c0,0-0.1,0.2-0.2,0.2C-477,650.7-476.8,650.4-476.7,650.3"/>
		<path class="st1" d="M-477.2,650.8c-0.1-0.1-0.2,0.2-0.3,0.2c-0.1,0.1-0.3,0.1-0.1,0.3c0.1,0.1,0.3-0.1,0.3-0.2
			C-477.2,651.1-477.1,650.9-477.2,650.8"/>
		<path class="st1" d="M-473,650.9C-473.1,651-473.1,651-473,650.9c-0.1,0.1-0.1,0.2,0,0.2c0,0,0,0,0.1,0.1c0,0,0.1,0,0.1,0
			c0,0,0.1-0.1,0.1-0.1C-472.9,651-472.9,651-473,650.9C-473,651-473,650.9-473,650.9"/>
		<path class="st1" d="M-473,651.4c-0.2,0-0.6,0-0.7,0.2c-0.1,0.2,0,0.4,0.2,0.4c0.1,0,0.3,0,0.4,0c0.1-0.1,0.1-0.2,0.1-0.3
			c0.1-0.1,0.2-0.1,0.2-0.2C-472.8,651.4-472.9,651.4-473,651.4"/>
		<path class="st1" d="M-470,652.4c-0.1,0.1-0.4,0.2-0.3,0.4C-470.2,652.8-469.8,652.3-470,652.4"/>
		<path class="st1" d="M-473.7,652.1c-0.1,0-0.2-0.2-0.3,0C-473.9,652.3-473.7,652.2-473.7,652.1
			C-473.6,652.2-473.6,652.2-473.7,652.1C-473.6,652.1-473.6,652.1-473.7,652.1"/>
		<path class="st1" d="M-483.1,654.5c-0.1-0.1-0.2,0-0.2,0.1c0,0-0.1,0-0.1,0.1c-0.1,0-0.1,0-0.2,0c-0.1,0.1,0,0.1,0.1,0.1
			c0.1,0,0.1,0,0.2,0c0.1,0,0.2,0,0.3-0.1C-483.1,654.6-483,654.5-483.1,654.5"/>
		<path class="st1" d="M-484.1,654.9C-484.1,654.8-484.1,654.9-484.1,654.9c-0.1,0.1-0.2,0-0.2,0c0,0-0.1,0-0.1,0.1c0,0,0,0.1,0,0.1
			c0,0,0.1,0,0.1,0c0,0,0.1,0,0.1,0C-484,655-484,654.9-484.1,654.9"/>
		<path class="st1" d="M-479.8,654.3c-0.1,0.1-0.1,0.1-0.2,0.2c0,0-0.1,0.1,0,0.1c0,0.1,0.1,0,0.1,0c0,0,0.1,0,0.1-0.1
			c0.1,0,0.1-0.1,0.1-0.1c0.1-0.1,0.2-0.1,0.2-0.2c0-0.2-0.2,0-0.2,0C-479.7,654.2-479.8,654.3-479.8,654.3"/>
		<path class="st1" d="M-479.7,655.1c0.1,0.1,0.1,0.2,0.2,0.2c0.1,0,0.3,0.1,0.3-0.1c0,0,0-0.1-0.1-0.1c0-0.1,0-0.1-0.1,0
			c-0.1,0-0.1,0-0.2,0c-0.1,0-0.2-0.2-0.2-0.1C-479.8,655-479.7,655.1-479.7,655.1"/>
		<path class="st1" d="M-479.2,654.9c0,0,0,0.1,0.1,0.1c0.2,0.1,0.1,0,0.2-0.2c0-0.1,0.1-0.1,0.1-0.2
			C-478.8,654.6-479.2,654.7-479.2,654.9"/>
		<path class="st1" d="M-478.8,655.4c0,0,0.1-0.1,0.1-0.1c0.1,0,0.2-0.1,0.2-0.2c0,0,0.1-0.2,0-0.2c-0.1,0-0.1,0.1-0.2,0.2
			c-0.1,0-0.4,0.2-0.4,0.3c0,0,0.1,0.1,0.1,0.1C-478.9,655.5-478.9,655.5-478.8,655.4C-478.8,655.4-478.8,655.4-478.8,655.4"/>
		<path class="st1" d="M-478.7,655.5c0,0-0.1,0-0.1,0c0,0-0.1,0-0.1,0.1c0,0-0.1,0-0.1,0.1c0,0,0,0.1,0.1,0.1c0,0,0.1,0.1,0.1,0.1
			c0,0,0.1-0.1,0-0.1c0,0,0,0,0-0.1c0,0,0,0,0.1-0.1C-478.6,655.6-478.6,655.5-478.7,655.5C-478.6,655.5-478.6,655.5-478.7,655.5"/>
		<path class="st1" d="M-479,655.8C-479,655.8-479,655.8-479,655.8c-0.1,0-0.1,0-0.1,0.1c0,0-0.1,0.1-0.1,0.1c0,0,0.1,0,0.1,0
			c0,0,0.1,0,0.1,0c0,0,0,0,0-0.1C-478.9,655.9-478.9,655.9-479,655.8C-478.9,655.9-478.9,655.8-479,655.8"/>
		<path class="st1" d="M-476.3,657.1c-0.1,0-0.1,0-0.1,0.1c0,0.1,0,0.1,0,0.1c0.1,0,0.3-0.1,0.4-0.2c0,0,0.3-0.2,0.2-0.2
			C-475.9,656.9-476.1,657-476.3,657.1C-476.2,657.1-476.3,657.1-476.3,657.1"/>
		<path class="st1" d="M-479.4,656.9c0,0.1-0.2,0.2-0.2,0.3c0,0.1,0.2,0.1,0.3,0.1c0.3,0,0.7,0.1,0.9-0.2c0.1-0.1,0.1-0.3,0.1-0.4
			c-0.1-0.2-0.2,0-0.3,0C-479,656.8-479.2,656.6-479.4,656.9"/>
		<path class="st1" d="M-474.8,656.5C-474.8,656.5-474.8,656.5-474.8,656.5c0,0.1,0,0.1,0.1,0.1c0.1,0,0.2,0.1,0.3,0.1
			c0,0,0.1,0.1,0.1,0.1c0.1,0,0.1,0,0.1-0.1c0,0,0-0.1,0-0.1c0,0,0-0.1,0-0.1c0-0.1-0.2-0.1-0.2-0.1c-0.1,0-0.1,0-0.2,0
			c0,0-0.1,0-0.1,0C-474.7,656.5-474.7,656.4-474.8,656.5"/>
	</g>
</g>
</svg>
