<?xml version="1.0" encoding="utf-8"?>
<!-- Generator: Adobe Illustrator 19.1.0, SVG Export Plug-In . SVG Version: 6.00 Build 0)  -->
<svg version="1.1" id="Layer_1" xmlns="http://www.w3.org/2000/svg" xmlns:xlink="http://www.w3.org/1999/xlink" x="0px" y="0px"
	 viewBox="-297.8 400.1 42.5 42.5" style="enable-background:new -297.8 400.1 42.5 42.5;" xml:space="preserve">
<style type="text/css">
	.st0{fill:#FFFFFF;}
</style>
<path class="st0" d="M-255.2,408.5c-1.6,0.7-3.2,1.2-5,1.4c1.8-1.1,3.2-2.8,3.8-4.8c-1.7,1-3.6,1.7-5.5,2.1
	c-1.6-1.7-3.9-2.8-6.4-2.8c-4.8,0-8.7,3.9-8.7,8.7c0,0.7,0.1,1.4,0.2,2c-7.3-0.4-13.7-3.8-18-9.1c-0.8,1.3-1.2,2.8-1.2,4.4
	c0,3,1.5,5.7,3.9,7.3c-1.4,0-2.8-0.4-4-1.1c0,0,0,0.1,0,0.1c0,4.2,3,7.8,7,8.6c-0.7,0.2-1.5,0.3-2.3,0.3c-0.6,0-1.1-0.1-1.6-0.2
	c1.1,3.5,4.3,6,8.1,6.1c-3,2.3-6.7,3.7-10.8,3.7c-0.7,0-1.4,0-2.1-0.1c3.9,2.5,8.4,3.9,13.4,3.9c16,0,24.8-13.3,24.8-24.8
	c0-0.4,0-0.8,0-1.1C-257.9,411.8-256.4,410.2-255.2,408.5L-255.2,408.5z"/>
</svg>
